<?xml version="1.0" standalone="no"?>
<!DOCTYPE svg PUBLIC "-//W3C//DTD SVG 20010904//EN"
 "http://www.w3.org/TR/2001/REC-SVG-20010904/DTD/svg10.dtd">
<svg version="1.0" xmlns="http://www.w3.org/2000/svg"
 width="1200.000000pt" height="900.000000pt" viewBox="0 0 1200.000000 900.000000"
 preserveAspectRatio="xMidYMid meet">

<g transform="translate(0.000000,900.000000) scale(0.100000,-0.100000)"
fill="#000000" stroke="none">
<path d="M5565 8160 c-225 -22 -468 -72 -655 -134 -375 -124 -721 -341 -985
-617 -310 -326 -520 -690 -703 -1219 -121 -348 -211 -555 -327 -750 -68 -114
-91 -140 -123 -140 -18 0 -41 -17 -78 -56 l-52 -56 -37 12 c-50 17 -139 8
-173 -16 -15 -11 -37 -40 -49 -64 -12 -24 -32 -53 -43 -65 -29 -30 -37 -66
-38 -169 -1 -61 3 -97 14 -118 14 -26 13 -31 -6 -57 -24 -35 -25 -54 -3 -91
32 -54 102 -66 151 -25 38 32 45 31 104 -7 34 -21 66 -33 101 -36 48 -4 57
-10 128 -77 122 -116 218 -176 349 -216 62 -19 96 -23 195 -23 66 1 129 3 139
5 17 4 21 -5 32 -71 20 -123 67 -236 144 -350 74 -110 179 -183 287 -200 51
-9 60 -14 116 -76 79 -86 140 -115 258 -122 86 -5 86 -5 104 -39 38 -70 119
-128 233 -168 36 -13 52 -24 52 -37 0 -41 -31 -351 -36 -359 -3 -5 -11 -9 -17
-9 -7 0 -30 -14 -50 -31 l-38 -32 4 34 c7 63 -36 156 -79 173 -51 19 -71 -52
-31 -107 20 -29 22 -45 24 -162 0 -71 6 -142 11 -156 8 -19 7 -49 -4 -105 -33
-185 -28 -387 11 -464 55 -107 212 -154 328 -100 59 28 121 97 142 158 15 46
57 287 71 411 5 50 14 74 38 105 17 23 45 62 61 89 31 48 49 58 130 72 78 13
125 61 125 127 0 74 -69 109 -89 46 -5 -18 -11 -44 -13 -58 -3 -25 -32 -41
-136 -71 -25 -7 -55 -26 -72 -46 -16 -18 -32 -33 -34 -33 -3 0 -14 20 -25 45
-17 38 -56 75 -95 88 -8 3 16 257 33 346 7 34 8 35 76 47 39 6 99 23 135 38
64 26 65 26 91 7 46 -34 143 -78 224 -102 70 -21 101 -23 250 -23 188 0 283
15 412 64 l73 28 62 -21 c132 -43 324 -20 415 49 19 14 36 24 39 22 9 -10 56
-452 48 -455 -39 -13 -75 -48 -97 -95 -19 -39 -27 -49 -32 -37 -10 26 14 99
47 145 21 30 29 50 26 74 -4 40 -30 60 -55 44 -29 -17 -69 -101 -88 -179 -23
-99 -11 -159 52 -248 26 -38 35 -63 44 -125 23 -179 52 -330 71 -374 25 -57
100 -130 154 -149 52 -17 140 -15 189 6 148 61 186 237 126 584 -17 94 -18
123 -9 160 17 70 22 73 95 65 77 -8 113 10 113 55 0 37 -22 54 -62 48 -18 -2
-51 2 -73 10 -45 16 -86 5 -110 -31 -15 -20 -15 -20 -43 11 -16 17 -43 38 -60
47 -18 9 -32 22 -32 29 0 6 -7 80 -15 162 -8 83 -15 169 -15 192 l0 42 58 11
c123 26 298 103 383 171 20 16 51 51 70 78 19 28 41 51 49 51 25 0 151 69 215
116 84 63 225 203 291 291 31 41 76 114 100 161 24 48 61 107 82 131 l38 43
79 -23 c104 -30 258 -32 360 -5 132 34 264 116 381 234 56 56 65 62 103 62 42
0 86 17 130 51 32 25 47 24 83 -6 42 -36 96 -34 137 4 35 33 40 65 15 112 -14
28 -14 34 0 70 12 29 15 59 11 112 -9 116 -14 132 -45 167 -17 19 -30 39 -30
46 0 19 -49 73 -81 89 -34 18 -98 19 -152 3 -43 -13 -37 -17 -102 66 -18 22
-32 29 -66 32 -37 2 -50 9 -82 45 -108 121 -176 242 -272 489 -188 485 -245
621 -334 801 -190 382 -344 603 -587 841 -186 182 -418 338 -668 448 -101 44
-352 133 -408 144 -13 2 -78 16 -146 31 -228 48 -395 65 -692 70 -151 2 -315
0 -365 -5z m575 -110 c787 -55 1375 -331 1803 -848 144 -174 259 -357 387
-617 108 -218 152 -325 330 -790 93 -244 176 -392 285 -513 46 -50 56 -67 51
-86 -4 -17 4 -38 29 -75 l35 -51 -22 -30 c-18 -25 -24 -50 -29 -123 -3 -51
-11 -107 -17 -126 -6 -18 -9 -52 -6 -75 6 -41 5 -44 -55 -102 -79 -76 -164
-127 -247 -148 -70 -18 -213 -22 -274 -8 -29 7 -35 12 -32 33 13 111 12 261
-1 324 -11 54 -13 93 -6 170 5 55 7 116 3 136 -4 27 1 48 21 85 44 82 25 157
-93 363 -39 67 -85 166 -107 227 -65 187 -110 257 -189 293 -22 10 -68 45
-101 78 -33 32 -85 73 -115 90 -49 28 -57 38 -73 85 -39 111 -185 219 -377
279 -41 13 -90 36 -108 51 -138 117 -451 180 -612 123 -24 -9 -51 -13 -60 -10
-35 14 -205 45 -246 45 -24 0 -57 8 -76 19 -143 84 -434 87 -598 6 -42 -20
-51 -21 -133 -12 -159 17 -322 -17 -430 -92 -45 -31 -49 -31 -179 -35 -152 -5
-243 -27 -349 -82 -137 -72 -235 -172 -304 -312 -29 -57 -42 -73 -63 -78 -52
-11 -110 -35 -168 -70 -32 -20 -90 -50 -129 -68 -112 -52 -164 -107 -236 -249
-34 -67 -100 -189 -147 -272 -110 -193 -130 -232 -142 -277 -14 -50 2 -111 41
-160 24 -31 29 -46 29 -95 1 -32 6 -84 13 -117 12 -55 11 -64 -15 -140 -22
-65 -28 -99 -28 -171 0 -49 5 -108 10 -130 5 -23 5 -44 0 -49 -15 -15 -162
-10 -225 9 -80 23 -185 94 -241 163 -43 53 -45 58 -39 102 4 30 1 61 -9 89 -9
28 -12 62 -9 95 5 44 1 64 -22 114 l-27 61 32 41 c27 34 31 46 26 75 -6 29 0
44 44 109 86 128 202 358 270 536 11 30 25 64 30 75 5 11 45 121 89 245 43
124 86 243 96 265 115 278 270 545 439 755 87 109 287 304 397 387 501 377
1117 535 1879 483z m-1770 -324 c0 -2 -19 -16 -42 -32 -24 -16 -57 -40 -74
-54 -17 -14 -51 -40 -75 -59 -74 -58 -321 -311 -390 -401 -85 -111 -190 -266
-263 -390 -32 -55 -34 -47 -3 12 143 267 352 534 561 717 100 87 210 171 224
171 5 0 17 9 27 20 16 18 35 27 35 16z m1637 -866 c45 -6 98 -16 118 -23 l38
-13 -64 -24 c-50 -18 -77 -36 -125 -85 -60 -61 -62 -62 -135 -73 -88 -13 -151
-39 -196 -81 -25 -23 -48 -32 -102 -40 -38 -6 -82 -16 -97 -22 -16 -6 -54 -7
-89 -4 -69 7 -183 -14 -249 -45 l-41 -20 35 5 c19 3 76 8 125 11 l90 7 -56
-46 c-55 -45 -56 -45 -165 -56 -60 -6 -136 -16 -169 -21 -104 -17 -115 -15
-116 23 0 29 -1 30 -12 13 -33 -52 -41 -55 -162 -75 -186 -31 -170 -32 -167 9
3 38 -23 88 -31 60 -18 -63 -25 -76 -47 -87 -24 -12 -120 -18 -120 -8 0 3 19
37 43 77 78 132 211 239 357 288 50 17 96 23 200 26 l135 5 -63 -32 c-35 -17
-88 -56 -118 -85 -52 -53 -91 -111 -80 -121 3 -3 33 20 68 51 106 97 230 146
401 162 95 8 89 23 -13 34 -43 5 -79 14 -88 24 -14 14 -9 18 50 45 99 46 239
67 347 53 62 -9 90 -17 108 -34 12 -12 23 -25 23 -28 0 -9 -111 -50 -134 -50
-10 0 -16 -6 -14 -12 9 -26 93 -20 218 17 67 19 128 35 136 35 23 0 16 19 -11
26 -13 3 -48 4 -77 2 -46 -3 -56 0 -75 22 -12 14 -23 28 -23 32 0 14 112 48
187 57 43 4 78 9 78 10 0 0 37 -4 82 -9z m471 -113 c45 -11 82 -24 82 -27 0
-18 -42 -41 -86 -46 -52 -7 -98 -29 -89 -43 3 -5 22 -5 42 0 21 5 60 9 87 9
43 0 52 4 82 37 19 20 34 42 34 48 0 19 63 35 138 35 154 0 383 -75 441 -143
14 -18 7 -92 -10 -103 -16 -10 -10 -34 9 -34 23 0 72 50 72 73 0 22 24 22 92
-2 125 -43 253 -137 284 -208 24 -56 15 -149 -14 -138 -8 3 -47 11 -86 17 -54
9 -80 19 -108 43 -42 35 -134 65 -201 65 -41 0 -47 4 -94 58 -36 41 -53 71
-62 109 -12 50 -71 143 -91 143 -15 0 -12 -10 15 -64 24 -47 31 -76 20 -76 -3
0 -22 11 -43 24 -120 77 -370 76 -525 -2 l-49 -24 -41 29 c-81 57 -188 94
-339 118 -21 3 -38 9 -38 14 0 16 57 61 104 81 100 45 222 47 374 7z m-393
-168 c71 -15 161 -48 221 -81 46 -25 151 -115 142 -122 -1 -2 -52 0 -113 5
-60 4 -160 8 -220 8 -90 1 -118 5 -150 21 -46 24 -95 27 -95 6 0 -8 8 -17 18
-19 9 -3 -34 -5 -96 -6 l-112 -1 -17 34 c-22 47 -5 89 51 120 92 52 225 65
371 35z m800 -83 c86 -27 170 -85 215 -148 38 -52 38 -60 -2 -53 -37 7 -218
28 -411 49 -136 15 -147 20 -189 79 -26 37 -18 45 75 74 101 31 213 30 312 -1z
m-1289 -65 l11 -40 -71 -5 c-186 -14 -227 -15 -222 -7 15 24 195 87 256 90 10
1 20 -13 26 -38z m599 -115 c77 -2 160 -7 185 -10 25 -2 75 -8 113 -12 70 -7
86 -22 45 -42 l-23 -11 22 0 c12 -1 23 5 25 11 4 10 19 10 74 1 73 -13 154
-47 132 -56 -7 -3 -1 -6 14 -6 36 -1 82 -55 68 -81 -8 -15 -5 -22 11 -34 23
-16 21 -31 -14 -103 -15 -33 -46 -31 -39 2 2 14 11 25 18 25 16 0 18 29 3 50
-8 12 -9 11 -4 -6 5 -20 2 -22 -37 -22 -146 -1 -168 -2 -168 -12 0 -5 5 -10
10 -10 6 0 10 -4 10 -10 0 -5 -18 -10 -40 -10 -33 0 -40 3 -40 19 0 11 -5 23
-11 27 -17 10 -149 15 -149 5 0 -4 26 -14 58 -21 31 -7 62 -16 67 -20 6 -4 24
-12 40 -18 l30 -10 -35 -1 c-25 -1 -31 -4 -21 -10 9 -6 24 -6 38 0 28 10 63
-4 63 -26 0 -9 15 -15 43 -18 23 -2 -29 -4 -115 -2 -87 1 -161 5 -165 8 -3 4
2 14 13 21 10 8 21 11 24 7 3 -4 21 -1 40 6 l35 13 -35 -1 c-19 -1 -63 -1 -97
0 l-63 1 0 40 c0 22 -4 40 -10 40 -5 0 -10 -18 -10 -40 0 -30 -4 -40 -16 -40
-8 0 -12 -4 -9 -10 4 -6 -18 -11 -57 -12 -61 -2 -61 -2 22 -8 47 -3 69 -7 50
-9 -34 -3 -35 -3 -8 -11 15 -4 43 -4 63 0 20 4 38 4 41 -1 7 -12 11 -12 -561
-15 -269 -1 -508 -5 -530 -8 -96 -13 -303 -25 -340 -20 -30 4 -36 2 -25 -5 11
-8 3 -11 -35 -12 -55 -1 -49 0 -195 -28 -58 -11 -143 -27 -190 -36 -95 -17
-178 -39 -228 -61 -17 -8 -47 -16 -65 -18 -17 -2 -41 -7 -52 -11 -39 -14 -90
-36 -117 -51 -31 -17 -41 -17 -93 -3 -39 11 -40 12 -15 22 l25 11 -29 4 c-16
2 -33 -1 -39 -7 -6 -6 -19 -11 -29 -11 -11 0 -15 -5 -12 -14 3 -8 12 -12 20
-9 8 3 14 0 14 -6 0 -7 16 -9 48 -6 l47 5 -25 -19 c-14 -11 -41 -24 -60 -29
-19 -5 -34 -13 -33 -19 1 -6 -10 -13 -25 -16 -15 -3 -57 -26 -94 -50 -42 -28
-64 -38 -58 -27 14 26 13 29 -10 27 -11 -1 -20 -6 -20 -12 0 -7 -13 -12 -30
-12 l-29 0 21 19 c25 22 16 38 -12 20 -25 -15 -50 -16 -50 -1 0 6 -8 1 -19
-12 -15 -18 -16 -28 -8 -46 14 -31 45 -40 61 -17 9 11 19 15 31 10 11 -4 22
-2 26 6 4 7 11 9 15 5 4 -4 -7 -20 -25 -36 -115 -103 -191 -190 -191 -220 0
-23 -19 -9 -29 22 -7 21 -8 44 -2 64 5 17 7 34 4 37 -3 3 1 8 10 12 9 3 19 19
22 35 4 16 11 29 16 29 5 0 9 8 9 18 0 14 2 15 10 2 6 -10 6 -16 0 -18 -6 -2
-10 -10 -10 -18 0 -8 -4 -14 -10 -14 -17 0 -11 -66 7 -81 15 -12 16 -12 10 4
-4 10 -2 17 6 18 15 0 62 59 48 59 -6 0 -11 5 -11 11 0 6 10 10 23 9 36 -3 47
-1 47 11 0 6 -8 8 -17 5 -20 -6 -55 19 -70 49 -8 16 -3 30 22 67 18 27 35 45
40 40 5 -4 5 -2 2 5 -8 13 1 43 14 43 15 0 10 -48 -7 -65 -9 -9 -13 -19 -10
-22 4 -4 13 3 21 15 23 32 45 52 58 52 7 0 6 -4 -3 -10 -8 -5 -11 -12 -7 -16
10 -10 37 15 31 30 -3 8 3 12 18 11 13 -1 23 -8 23 -16 0 -8 -8 -13 -17 -11
-11 2 -18 -3 -18 -12 0 -8 -3 -23 -6 -33 -5 -16 -5 -17 6 -1 6 10 17 15 26 11
11 -4 12 -9 3 -19 -9 -11 -8 -14 4 -14 9 0 19 5 22 11 4 6 14 8 22 5 8 -3 12
-2 9 2 -3 5 15 13 39 20 34 9 43 16 38 27 -3 9 -11 14 -19 11 -7 -3 -15 0 -17
7 -2 7 -8 9 -12 4 -5 -4 0 -14 11 -21 18 -14 18 -15 -6 -19 -32 -6 -89 -6 -73
0 7 2 9 11 6 20 -4 11 -2 14 5 9 25 -15 11 22 -14 39 -24 15 -27 15 -65 -4
-32 -17 -39 -18 -39 -6 0 8 -4 15 -9 15 -5 0 -4 13 2 29 12 32 27 32 27 0 0
-11 -4 -17 -10 -14 -5 3 -10 1 -10 -4 0 -16 16 -13 34 5 9 9 16 11 16 4 0 -18
17 -3 23 21 4 16 2 19 -10 15 -13 -5 -15 0 -10 31 5 26 3 33 -3 23 -5 -8 -10
-25 -10 -37 0 -13 -4 -23 -10 -23 -17 0 -11 32 16 78 20 34 29 41 36 31 7 -10
7 -7 3 9 -7 23 22 102 38 102 4 0 6 4 2 9 -3 5 3 16 13 23 9 7 25 26 35 41 10
15 30 33 45 40 15 6 29 14 32 17 12 12 89 50 111 54 13 2 51 13 84 24 104 35
237 64 271 60 19 -2 34 -1 34 3 0 9 77 22 113 20 15 -2 27 2 27 8 0 6 15 11
33 11 18 0 60 7 92 16 34 8 74 12 93 9 25 -5 32 -3 26 6 -5 9 10 11 70 6 43
-4 75 -3 72 2 -7 11 62 22 274 41 69 6 154 15 190 19 36 5 107 9 159 10 51 0
96 3 99 6 6 6 311 1 577 -9z m1164 -47 c20 -7 45 -16 56 -20 l20 -9 -20 5
c-11 2 -53 9 -94 15 -41 6 -77 13 -80 15 -9 10 84 5 118 -6z m421 -71 c22 -13
40 -26 40 -29 0 -3 -20 -2 -45 4 -33 8 -45 15 -45 29 0 23 3 23 50 -4z m-1000
-204 l25 -8 -25 -7 c-45 -13 -60 -10 -60 12 0 21 1 21 60 3z m-87 -42 c-15 -2
-20 -8 -16 -19 9 -22 -17 -12 -33 13 -13 19 -11 19 29 15 25 -3 33 -7 20 -9z
m84 2 c-3 -3 -12 -4 -19 -1 -8 3 -5 6 6 6 11 1 17 -2 13 -5z m-43 -19 c-4 -8
-8 -15 -10 -15 -2 0 -4 7 -4 15 0 8 4 15 10 15 5 0 7 -7 4 -15z m66 -5 c0 -5
-7 -10 -15 -10 -8 0 -15 5 -15 10 0 6 7 10 15 10 8 0 15 -4 15 -10z m-1247
-136 c-25 -33 -27 -44 -26 -113 l1 -75 -45 -51 c-42 -46 -144 -223 -196 -337
-11 -27 -26 -48 -31 -48 -6 0 -25 14 -43 30 l-32 29 18 38 c24 49 36 119 22
127 -6 4 -13 -5 -17 -21 -9 -38 -31 -80 -54 -103 -16 -16 -29 -18 -113 -13
-71 4 -108 2 -144 -9 -26 -9 -66 -19 -88 -22 -167 -28 -330 -110 -452 -230
-35 -33 -63 -55 -63 -49 0 29 31 164 49 217 51 144 125 244 245 333 132 96
374 178 467 158 65 -15 10 -83 -89 -110 -136 -37 -168 -47 -186 -61 -11 -7
-18 -16 -15 -18 8 -9 214 16 255 30 45 16 101 66 115 102 15 40 10 63 -20 91
-28 26 -29 30 -19 70 7 29 17 43 32 46 29 6 272 22 374 24 l83 1 -28 -36z
m716 20 c25 -8 -16 -40 -72 -58 -86 -27 -153 -36 -317 -45 -136 -7 -163 -11
-224 -35 -56 -23 -70 -26 -77 -15 -23 37 1 128 38 145 34 15 178 21 408 17
127 -3 236 -7 244 -9z m348 -52 c17 -21 29 -40 26 -45 -2 -4 0 -6 5 -5 5 2 26
-12 46 -30 20 -18 76 -52 123 -75 l86 -41 -7 -75 c-18 -229 -19 -356 -2 -441
10 -47 22 -90 27 -96 21 -26 -21 -117 -75 -166 -56 -49 -3 -50 55 0 18 14 39
39 49 54 l17 28 36 -39 c20 -22 67 -60 104 -85 98 -65 138 -111 187 -210 29
-58 45 -82 49 -72 18 46 -39 188 -102 259 -19 21 -64 58 -101 81 -161 104
-211 241 -190 511 12 152 12 348 0 400 -5 22 -7 41 -5 43 2 2 46 -3 97 -13
l93 -16 0 -72 c0 -60 4 -78 24 -105 22 -32 50 -39 42 -11 -21 78 -5 179 29
179 59 0 82 -27 119 -138 24 -70 42 -282 24 -282 -6 0 -25 10 -44 23 -65 43
-92 52 -151 52 -54 0 -62 -3 -84 -30 -13 -16 -24 -39 -24 -51 0 -38 48 -118
122 -205 97 -115 108 -130 108 -149 0 -17 19 -40 32 -40 43 0 -65 214 -164
323 -25 29 -32 68 -14 86 14 13 21 13 53 2 86 -31 226 -156 297 -265 37 -57
102 -190 137 -281 29 -75 39 -88 39 -49 0 51 -45 205 -83 286 -32 67 -124 203
-149 219 -4 3 -10 82 -12 175 -3 155 -5 174 -29 232 -15 38 -21 62 -14 59 7
-2 53 -14 102 -26 155 -39 285 -83 285 -97 0 -8 -4 -14 -9 -14 -16 0 -41 -92
-41 -152 0 -32 -2 -58 -4 -58 -2 0 -23 7 -46 15 -24 8 -53 12 -64 9 -17 -6
-11 -11 36 -35 67 -34 102 -74 134 -154 48 -118 50 -245 4 -334 -12 -24 -19
-46 -15 -49 13 -14 42 17 73 81 30 59 33 76 34 149 0 66 -6 99 -27 158 -15 41
-31 80 -35 85 -4 6 -18 42 -29 82 -21 71 -21 74 -5 143 18 73 29 83 72 61 9
-5 61 -30 115 -56 108 -52 117 -63 117 -143 0 -43 -32 -198 -44 -209 -8 -9
-66 60 -72 86 -10 46 -14 53 -27 48 -7 -2 -12 -24 -12 -58 0 -61 19 -94 81
-140 65 -50 92 -94 99 -162 13 -132 -9 -205 -111 -354 -23 -33 -52 -87 -64
-120 -23 -63 -30 -166 -13 -197 9 -17 11 -15 22 14 6 18 11 45 11 60 0 38 71
174 93 178 11 2 23 -8 35 -28 37 -68 44 -70 39 -12 -3 36 -11 60 -26 76 -21
22 -21 23 -3 47 54 69 103 249 87 323 -3 14 -7 37 -10 51 -7 34 12 32 62 -4
48 -34 75 -90 93 -188 14 -75 9 -198 -10 -247 -9 -26 -11 -26 -39 -11 -30 15
-45 8 -36 -17 3 -7 41 -30 85 -51 144 -68 312 -66 462 8 83 40 109 59 182 131
l51 52 43 -30 43 -30 -23 -26 c-39 -43 -41 -46 -108 -98 -69 -54 -132 -90
-227 -127 -52 -20 -74 -22 -213 -21 -153 2 -222 13 -337 54 -45 16 -58 9 -33
-17 25 -27 25 -33 1 -86 -10 -23 -28 -64 -40 -92 -12 -27 -32 -66 -45 -85 -12
-19 -36 -55 -52 -80 -50 -78 -157 -189 -258 -268 -82 -64 -121 -88 -184 -113
-42 -17 -44 -17 -82 5 l-39 22 24 36 c14 20 33 61 42 91 l18 55 76 16 c45 10
100 30 135 51 86 51 221 201 200 222 -3 3 -38 -29 -79 -70 -96 -98 -166 -133
-299 -151 -33 -4 -37 -2 -48 25 -24 58 -106 103 -146 81 -14 -8 -10 -13 29
-30 25 -11 53 -32 63 -46 46 -71 -31 -230 -153 -319 -104 -75 -188 -107 -315
-122 -32 -4 -58 -11 -58 -16 0 -29 183 -22 273 10 33 11 88 41 123 66 61 44
66 46 99 35 19 -6 35 -17 35 -24 0 -8 -25 -38 -55 -68 -118 -117 -398 -213
-560 -193 -78 10 -81 14 -51 73 14 28 22 53 17 56 -5 3 -25 -12 -45 -34 -46
-51 -115 -104 -180 -138 -48 -25 -59 -27 -176 -27 -107 0 -132 4 -173 23 -44
19 -52 20 -76 8 -46 -24 -182 -65 -266 -80 -50 -9 -129 -13 -210 -11 -194 5
-335 47 -432 130 l-42 35 -48 -28 c-176 -104 -532 -75 -681 54 -18 16 -45 53
-60 83 -24 47 -34 57 -71 69 -56 19 -150 112 -184 183 -42 87 -57 162 -57 291
0 65 2 118 5 118 2 0 21 -11 41 -25 59 -40 105 -48 254 -41 158 8 260 -11 332
-60 95 -66 151 -225 98 -282 -28 -30 -59 -28 -99 9 -39 35 -48 32 -35 -13 13
-45 68 -81 109 -72 45 9 70 28 90 70 35 74 -6 215 -86 295 -40 40 -148 99
-181 99 -34 0 -47 13 -64 62 -33 102 0 208 96 306 94 95 222 152 340 152 122
0 160 -29 215 -159 79 -191 107 -222 206 -229 l60 -4 58 60 c35 36 70 64 87
67 16 4 38 10 49 15 17 6 14 9 -17 15 -65 12 -109 -2 -154 -51 -35 -38 -47
-44 -81 -44 -51 0 -93 40 -123 118 -13 31 -38 87 -56 124 -32 66 -32 68 -17
107 16 40 12 78 -7 66 -5 -3 -10 -15 -10 -25 0 -35 -32 -41 -91 -19 -44 17
-69 20 -134 16 -44 -2 -88 -8 -97 -12 -16 -6 -18 -1 -18 41 0 45 -34 143 -45
132 -3 -3 0 -29 5 -59 10 -54 6 -104 -11 -125 -5 -7 -39 -29 -76 -50 -173
-101 -278 -281 -243 -417 7 -29 15 -57 17 -63 2 -6 -10 -11 -29 -11 -18 0 -82
-1 -141 -2 -92 -2 -114 1 -152 19 -58 28 -78 61 -86 142 -4 51 -12 76 -33 102
l-27 35 15 64 c26 110 87 250 161 367 35 56 176 198 230 232 40 25 159 79 203
93 20 6 17 -2 -24 -62 -56 -83 -105 -137 -163 -183 -92 -72 -146 -156 -176
-275 -27 -105 -15 -155 15 -60 39 124 97 204 230 315 30 25 85 88 124 140 100
134 105 140 161 166 71 34 199 34 270 0 74 -35 97 -65 106 -136 8 -72 33 -121
99 -201 73 -87 87 -118 115 -251 3 -16 10 -28 17 -28 7 0 9 24 5 79 -6 98 -42
183 -109 259 -87 100 -91 185 -13 329 65 121 59 116 130 110 83 -6 150 -38
207 -98 44 -46 46 -48 37 -20 -24 70 -145 155 -235 167 l-51 6 23 43 c53 94
141 167 237 196 18 6 115 14 217 19 140 6 203 14 260 30 112 33 115 33 156 20
84 -28 221 -142 257 -216 9 -17 23 -36 31 -43 14 -12 16 -10 16 10 0 33 -114
188 -175 239 -27 23 -67 48 -87 57 -42 17 -42 17 -28 44 10 18 19 19 123 13
l112 -6 32 -36z m-1577 19 c0 -11 -4 -31 -9 -44 -8 -21 -17 -25 -78 -30 -69
-6 -162 -34 -265 -81 -32 -14 -58 -22 -58 -18 0 4 17 39 38 77 l38 70 145 22
c186 27 189 27 189 4z m1795 -10 c40 -6 40 -7 49 -64 5 -31 7 -59 5 -62 -7 -7
-88 23 -138 52 -49 28 -101 72 -101 85 0 8 110 1 185 -11z m-2252 -69 c15 -17
15 -23 -5 -85 -18 -56 -30 -73 -73 -109 -147 -123 -250 -337 -273 -568 -8 -76
-15 -96 -55 -165 -52 -91 -111 -237 -132 -326 -7 -34 -16 -64 -19 -67 -3 -3
-48 -6 -99 -6 -84 -1 -97 2 -130 24 -83 56 -129 243 -96 390 5 25 50 126 99
225 50 99 96 207 103 240 23 101 7 173 -46 198 l-31 15 35 16 c19 9 46 24 61
32 15 8 42 17 59 19 17 2 37 12 44 22 19 26 28 11 14 -23 -20 -50 -14 -210 10
-284 31 -98 28 -124 -25 -200 -78 -112 -114 -191 -134 -293 -7 -34 -18 -55
-40 -74 -17 -14 -28 -28 -26 -31 3 -3 43 -6 88 -7 46 -1 91 -5 101 -10 12 -5
17 -3 17 7 0 19 -27 44 -64 58 -27 10 -28 13 -22 53 7 49 64 169 116 247 80
119 83 139 41 285 -32 110 -26 186 22 283 20 41 24 44 106 68 47 14 93 28 101
31 8 3 50 13 93 23 43 10 81 21 84 24 13 13 61 5 76 -12z m-1015 -232 c7 -11
9 -20 4 -20 -10 0 -32 22 -32 32 0 15 15 8 28 -12z m-56 -37 c15 -39 11 -74
-12 -95 -27 -26 -35 -22 -16 7 19 28 24 71 12 98 -5 9 -5 17 -2 17 4 0 12 -12
18 -27z m330 -50 c42 -38 3 -172 -116 -388 -75 -136 -90 -187 -89 -310 0 -172
39 -270 133 -334 50 -34 96 -40 234 -32 76 5 86 -7 86 -106 0 -40 -2 -73 -4
-73 -3 0 -20 9 -38 19 -40 23 -98 34 -117 22 -16 -10 -7 -16 41 -25 25 -4 48
-19 72 -46 l36 -40 0 -101 c0 -185 50 -328 152 -433 32 -33 56 -62 53 -64 -8
-9 -105 30 -144 58 -22 16 -58 55 -81 87 -22 32 -60 82 -85 110 -24 29 -52 75
-62 103 -10 27 -22 50 -27 50 -16 0 4 -93 33 -152 16 -32 26 -58 21 -58 -26 0
-101 36 -147 71 -109 84 -217 284 -230 425 l-6 64 41 -16 c50 -20 81 -52 122
-124 l31 -55 -6 40 c-12 73 -81 176 -127 191 -20 6 -19 7 8 31 l29 24 -30 -5
c-16 -3 -70 -13 -120 -22 -94 -17 -214 -14 -319 7 -69 14 -199 78 -266 130
-65 50 -140 120 -140 130 0 4 19 20 41 36 l42 28 76 -75 c166 -164 390 -212
548 -118 55 32 88 71 47 53 -49 -20 -63 -18 -71 11 -4 16 -8 74 -8 129 1 118
18 178 80 280 53 87 59 106 50 161 -7 51 -20 51 -28 -1 -3 -19 -18 -51 -34
-72 l-28 -37 -5 65 c-10 123 4 151 135 283 l80 81 3 -35 c5 -49 19 -59 32 -24
14 36 49 74 68 74 9 0 24 -7 34 -17z m4385 -62 c60 -60 76 -92 86 -170 12 -90
2 -185 -16 -160 -16 20 -79 49 -122 56 -19 3 -42 14 -51 25 -16 17 -17 25 -6
78 7 32 24 84 37 115 14 30 25 62 25 70 0 23 15 18 47 -14z m-5427 -91 c38
-20 41 -44 13 -81 -24 -32 -25 -30 -8 14 6 13 3 16 -9 11 -15 -6 -21 -29 -17
-61 3 -25 -36 -13 -58 18 -18 24 -20 33 -11 44 7 8 16 12 21 9 5 -3 9 2 9 10
0 9 5 16 10 16 6 0 10 -6 10 -14 0 -8 -4 -18 -10 -21 -5 -3 -10 -15 -10 -26 0
-11 5 -17 10 -14 6 4 8 10 5 15 -3 4 2 13 10 20 7 6 11 19 8 27 -4 11 -2 14 5
9 7 -4 12 -2 12 3 0 6 -7 11 -16 11 -8 0 -12 5 -9 10 8 13 12 12 35 0z m6344
-12 c9 -12 16 -27 16 -33 0 -5 -9 3 -19 18 -11 18 -21 25 -25 18 -4 -6 0 -14
8 -17 25 -10 19 -26 -6 -19 l-23 7 23 -17 c14 -10 21 -24 18 -38 -1 -12 -1
-16 1 -9 3 6 8 12 13 12 4 0 10 10 14 22 4 19 8 20 18 10 11 -11 10 -16 -4
-26 -10 -7 -18 -18 -18 -25 0 -28 -32 -22 -65 12 -42 43 -43 59 -9 86 33 26
39 26 58 -1z m-6534 -70 c30 -11 70 -47 70 -63 0 -12 -53 -55 -69 -55 -6 0
-26 11 -46 24 -19 13 -58 30 -85 37 -28 7 -50 16 -50 19 0 12 45 48 65 53 23
5 79 -2 115 -15z m6828 -7 c29 -25 28 -41 -2 -41 -14 0 -54 -16 -91 -35 l-67
-34 -31 22 c-18 12 -34 23 -36 25 -9 5 45 55 74 68 45 20 125 17 153 -5z
m-6910 -117 c47 -23 52 -29 52 -59 0 -45 -11 -49 -60 -24 -34 18 -53 21 -106
16 -63 -5 -64 -4 -64 20 0 13 11 35 25 48 32 33 86 33 153 -1z m264 15 c45
-24 63 -144 33 -228 -13 -36 -6 -57 10 -31 13 21 25 8 25 -27 0 -21 -8 -52
-18 -68 -34 -55 -173 -112 -212 -86 -13 9 -12 12 5 25 19 14 17 15 -23 16 -46
0 -82 14 -82 31 0 21 145 181 178 197 51 24 50 38 -2 34 -51 -4 -86 11 -86 37
0 29 39 72 84 92 48 22 60 23 88 8z m6723 -15 c14 -15 25 -37 25 -50 0 -21 -2
-22 -36 -12 -41 11 -112 -2 -148 -28 -31 -21 -36 -18 -36 25 0 37 3 41 52 65
68 34 112 34 143 0z m-297 -14 c41 -30 63 -73 45 -91 -5 -5 -37 -12 -71 -15
-34 -4 -62 -10 -62 -14 0 -7 26 -19 71 -33 19 -6 159 -170 159 -186 0 -12 -63
-31 -104 -31 -28 0 -29 0 -11 -20 18 -20 17 -20 -21 -20 -51 0 -136 40 -162
77 -41 58 -41 123 1 86 20 -18 20 -18 13 7 -31 115 -29 201 6 245 28 36 82 34
136 -5z m-6703 -116 c45 -30 44 -89 -2 -100 -14 -4 -49 -2 -77 5 -34 8 -52 8
-54 1 -7 -20 -32 -10 -38 16 -9 37 6 76 36 92 31 16 100 9 135 -14z m7018 -6
c17 -21 22 -54 11 -82 -10 -26 -27 -18 -20 9 4 14 4 25 2 25 -3 0 -26 -11 -52
-25 -76 -41 -124 -30 -124 26 0 28 34 61 75 72 35 9 89 -3 108 -25z m-7053
-170 c0 -4 -11 -20 -25 -35 -24 -27 -24 -27 -25 -5 0 13 6 22 15 22 8 0 15 8
15 17 0 14 -3 13 -23 -5 -23 -22 -57 -30 -57 -13 0 4 9 20 20 34 20 25 21 25
50 9 17 -9 30 -20 30 -24z m6992 19 c-8 -10 -6 -13 10 -14 25 -2 42 -24 26
-34 -7 -4 -6 -9 2 -14 7 -4 16 -1 21 6 6 10 8 7 7 -11 -2 -14 -11 -31 -21 -39
-16 -11 -22 -10 -43 9 -17 17 -22 30 -18 47 5 18 2 23 -12 23 -16 0 -16 -2 -4
-10 8 -5 12 -11 9 -14 -3 -3 -16 6 -30 21 -15 16 -18 24 -9 21 9 -3 24 0 35 8
24 18 41 18 27 1z m-7108 -62 c-7 -18 7 -20 24 -3 6 6 15 8 19 3 5 -4 2 -10
-4 -12 -7 -3 -13 -9 -13 -15 0 -6 7 -8 15 -4 8 3 15 1 15 -4 0 -6 -11 -10 -25
-10 -25 0 -51 32 -40 50 9 15 15 12 9 -5z m4554 -1461 c17 -3 32 -9 32 -14 0
-5 4 -42 9 -82 6 -40 13 -125 16 -188 3 -63 10 -164 16 -225 18 -202 7 -265
-45 -265 -29 0 -43 11 -55 42 -10 26 -73 517 -87 671 l-6 78 43 -6 c24 -3 59
-8 77 -11z m-2074 -49 c27 -3 51 -6 53 -8 4 -5 -26 -302 -37 -362 -5 -27 -11
-81 -15 -120 -9 -110 -36 -215 -58 -226 -28 -16 -60 -7 -74 21 -15 29 -12 109
18 445 23 262 24 268 47 261 9 -3 39 -8 66 -11z m-329 -273 c23 -35 24 -44 22
-167 -2 -115 1 -135 19 -176 12 -26 34 -55 48 -65 63 -45 69 -51 63 -67 -14
-37 -110 31 -148 105 -15 30 -19 59 -19 151 0 113 -10 167 -36 198 -8 8 -14
25 -14 37 0 36 36 27 65 -16z m2193 -8 c2 -11 -13 -46 -32 -78 -19 -31 -37
-75 -41 -96 -14 -84 46 -181 153 -243 66 -39 84 -74 32 -64 -76 16 -160 82
-197 157 -27 53 -24 190 5 252 12 26 22 50 22 54 0 14 33 45 44 41 6 -2 12
-12 14 -23z m-1338 -71 c0 -39 -57 -89 -110 -97 -98 -16 -106 -21 -175 -126
-87 -130 -164 -200 -220 -200 -18 0 -28 30 -14 46 6 8 22 14 35 14 35 0 99 63
161 157 56 87 92 114 165 128 61 12 96 39 103 82 11 67 14 71 36 44 10 -13 19
-34 19 -48z m1914 -58 c21 -9 54 -14 74 -13 31 3 37 0 40 -18 4 -31 -44 -49
-94 -35 -22 6 -45 11 -51 11 -21 0 -53 -38 -53 -64 0 -43 -69 -164 -108 -191
-62 -43 -74 -23 -18 31 24 24 42 56 61 116 34 102 61 153 89 166 11 6 22 11
22 11 1 1 18 -6 38 -14z m-2621 -27 c-4 -18 -19 -45 -35 -60 -15 -14 -31 -40
-34 -57 -4 -17 -10 -34 -15 -36 -34 -21 -4 106 37 154 35 42 56 41 47 -1z
m2424 10 c29 -32 43 -62 43 -92 0 -34 -16 -33 -34 3 -9 16 -22 31 -29 34 -8 3
-17 19 -19 36 -7 48 7 54 39 19z m-2123 -28 c25 -31 43 -106 32 -136 -8 -21
-22 -10 -31 23 -3 16 -20 42 -36 59 -24 25 -29 37 -23 58 8 34 26 33 58 -4z
m1839 3 c4 -21 -1 -35 -23 -58 -34 -37 -50 -67 -50 -95 0 -12 -4 -18 -10 -15
-26 16 -4 133 32 172 28 30 44 29 51 -4z m11 -165 c4 -42 3 -58 -6 -58 -6 0
-9 3 -6 6 3 3 2 21 -4 40 -5 19 -6 44 -3 55 9 28 11 23 19 -43z m-1894 -2 c0
-18 -7 -41 -16 -52 -14 -18 -15 -17 -10 21 3 22 6 48 6 58 0 10 5 15 10 12 6
-3 10 -21 10 -39z m-283 -33 c-3 -10 -5 -2 -5 17 0 19 2 27 5 18 2 -10 2 -26
0 -35z m2543 -95 c17 -92 25 -334 11 -384 -43 -158 -230 -206 -347 -89 -50 50
-66 96 -93 265 -29 186 -31 200 -21 200 15 0 19 -15 39 -156 25 -174 34 -203
74 -255 90 -118 245 -114 307 6 23 46 25 59 23 175 0 69 -7 159 -15 201 -8 42
-12 81 -10 88 9 26 21 7 32 -51z m-2625 6 c0 -5 -6 -64 -14 -131 -25 -221 2
-323 96 -365 58 -25 108 -20 172 19 80 50 110 129 141 377 9 73 22 108 35 95
8 -8 -45 -331 -62 -379 -23 -63 -51 -98 -103 -128 -87 -52 -217 -29 -267 47
-39 58 -46 104 -39 266 7 170 14 217 30 212 6 -2 11 -8 11 -13z m2547 -49 c5
-25 -5 -34 -17 -15 -4 7 -41 10 -92 9 -68 -1 -94 -7 -129 -25 -44 -23 -46 -23
-44 14 1 4 12 6 25 4 14 -2 27 2 30 10 4 9 31 13 101 13 53 0 98 3 101 8 9 15
21 6 25 -18z m-2353 -1 c2 -2 -7 -4 -22 -4 -14 0 -29 5 -32 10 -6 10 42 4 54
-6z m-115 -3 c3 -5 -1 -11 -9 -15 -9 -3 -15 0 -15 9 0 16 16 20 24 6z m229 -8
c21 -4 27 -11 27 -32 -1 -22 -2 -23 -10 -9 -10 15 -76 45 -92 40 -5 -1 -8 3
-8 9 0 7 10 9 28 5 15 -4 39 -10 55 -13z m-163 -68 c41 0 97 -7 123 -15 42
-13 49 -13 58 0 9 12 10 12 5 -3 -3 -10 -6 -26 -6 -35 0 -10 -3 -13 -8 -6 -26
38 -220 65 -257 34 -15 -13 -21 -59 -7 -61 4 0 14 -2 23 -4 9 -1 34 1 57 5 29
5 58 1 109 -15 67 -21 68 -22 65 -54 -3 -40 -28 -101 -41 -101 -5 0 -13 5 -16
10 -3 6 0 10 8 10 8 0 17 9 20 20 6 23 -8 27 -17 5 -8 -21 -30 -19 -51 5 -17
19 -17 20 1 22 10 0 31 0 46 -1 14 -1 29 3 33 9 12 19 -1 22 -42 11 -35 -9
-37 -9 -16 5 20 15 21 17 5 35 -9 10 -27 19 -39 19 -13 0 -23 5 -23 12 0 8 -7
5 -17 -6 -17 -17 -17 -18 10 -40 33 -27 34 -35 3 -29 -13 3 -29 16 -35 29 -11
26 -41 33 -41 10 0 -8 7 -21 15 -30 8 -8 11 -17 6 -20 -5 -3 -9 -22 -8 -41 l1
-35 23 22 c13 12 23 30 23 40 0 10 7 18 16 18 11 0 14 -6 9 -20 -5 -15 -3 -18
9 -14 9 3 16 2 16 -3 0 -18 -13 -23 -27 -11 -11 9 -17 9 -23 -3 -7 -10 -4 -15
8 -18 17 -3 66 -50 60 -57 -7 -7 -48 8 -43 16 3 4 -2 10 -10 14 -21 8 -19 -4
7 -31 l21 -23 -37 0 c-93 0 -127 53 -126 195 1 77 4 132 9 143 0 2 7 0 14 -5
6 -4 46 -8 87 -8z m2363 -2 c3 -5 -21 -7 -53 -7 -31 1 -74 -4 -94 -11 -20 -7
-36 -9 -36 -4 0 21 171 41 183 22z m51 -9 c4 -9 4 -19 1 -22 -7 -8 -35 19 -29
29 8 14 21 11 28 -7z m-255 -19 c6 3 11 1 11 -4 0 -6 -6 -11 -14 -11 -8 0 -16
-6 -19 -12 -2 -7 -6 2 -9 21 -4 30 -3 32 8 17 7 -10 17 -15 23 -11z m258 -47
c-3 -8 -6 -5 -6 6 -1 11 2 17 5 13 3 -3 4 -12 1 -19z m-2240 -30 c-3 -8 -6 -5
-6 6 -1 11 2 17 5 13 3 -3 4 -12 1 -19z m2225 0 c-2 -7 -9 -16 -15 -20 -9 -5
-9 -10 1 -20 9 -9 12 -9 12 4 0 9 5 20 11 24 14 9 2 -121 -14 -151 -13 -24
-39 -45 -49 -39 -5 3 -8 0 -8 -5 0 -16 -67 -13 -100 4 -50 26 -83 84 -104 183
-5 24 -4 25 18 16 9 -3 16 -12 16 -20 0 -8 9 -31 20 -51 23 -43 27 -22 5 29
-13 33 -13 36 8 46 32 16 64 20 137 17 48 -3 64 -7 62 -17z m-2335 -34 c-6 -6
-47 9 -47 17 0 5 11 3 25 -3 14 -6 24 -13 22 -14z m-67 -43 c0 -12 -20 -25
-27 -18 -7 7 6 27 18 27 5 0 9 -4 9 -9z m94 -76 c10 -7 15 -19 11 -25 -5 -8
-13 -5 -26 9 -30 32 -21 43 15 16z"/>
<path d="M5820 6310 c0 -5 5 -10 10 -10 6 0 10 5 10 10 0 6 -4 10 -10 10 -5 0
-10 -4 -10 -10z"/>
<path d="M5908 6302 c-9 -4 20 -7 65 -8 52 0 71 2 52 7 -39 9 -96 9 -117 1z"/>
<path d="M5426 6291 c-3 -4 -27 -6 -53 -4 -26 3 -64 0 -83 -5 -26 -8 -29 -10
-12 -11 19 -1 21 -3 10 -15 -9 -10 -17 -11 -25 -4 -14 11 -67 2 -59 -10 2 -4
-10 -7 -27 -5 -134 11 -157 10 -157 -9 0 -10 -6 -18 -14 -18 -23 0 -28 18 -9
29 16 9 14 10 -9 11 -16 0 -28 -5 -28 -10 0 -6 -10 -8 -24 -4 -13 3 -27 1 -30
-5 -4 -7 1 -11 13 -11 12 0 41 -5 66 -12 38 -10 48 -10 54 1 7 11 10 11 14 0
4 -10 6 -10 6 -1 1 7 16 12 44 12 27 0 37 -3 29 -9 -21 -13 6 -19 43 -10 17 4
24 7 16 8 -8 0 -11 4 -8 7 4 4 13 1 22 -6 9 -8 27 -10 48 -6 23 4 28 3 17 -4
-10 -6 -11 -10 -2 -10 6 0 12 -7 12 -15 0 -12 16 -15 80 -15 47 0 80 4 80 10
0 6 -13 10 -29 10 -17 0 -32 4 -35 9 -7 11 35 19 85 16 22 -2 39 1 39 7 0 7
-31 9 -87 6 -49 -2 -80 -2 -70 0 27 6 20 22 -10 22 -30 0 -27 9 6 15 11 2 21
0 21 -6 0 -10 153 -5 183 6 9 4 25 4 35 0 14 -6 10 -10 -18 -20 -19 -8 -28
-14 -20 -15 10 -1 9 -4 -5 -10 -19 -8 -19 -9 2 -9 12 -1 25 4 29 10 3 6 15 9
25 6 10 -3 24 2 30 10 10 11 24 13 63 7 28 -4 57 -7 64 -7 6 0 12 -6 12 -14 0
-7 9 -13 20 -13 17 0 20 7 20 40 0 38 2 40 29 40 17 0 33 5 36 10 8 13 -1 12
-47 -1 -33 -9 -38 -14 -39 -42 -2 -30 -2 -29 -8 8 -5 36 -9 40 -36 42 -25 2
-27 1 -10 -7 17 -7 16 -9 -10 -9 -17 -1 -35 -4 -40 -8 -6 -5 -55 -5 -110 -2
-55 3 -84 6 -65 8 33 3 33 3 10 11 -34 11 -78 12 -84 1z m-21 -21 c7 -12 -32
-12 -60 0 -16 7 -13 9 17 9 20 1 40 -3 43 -9z m-155 -40 c0 -5 -7 -10 -15 -10
-8 0 -15 5 -15 10 0 6 7 10 15 10 8 0 15 -4 15 -10z m70 -21 c0 -5 -7 -9 -15
-9 -8 0 -15 7 -15 15 0 9 6 12 15 9 8 -4 15 -10 15 -15z"/>
<path d="M6155 6290 l-40 -7 40 -1 c22 0 51 4 65 8 l25 8 -25 0 c-14 -1 -43
-4 -65 -8z"/>
<path d="M6255 6278 c-22 -5 -87 -8 -145 -6 -58 3 -89 3 -70 0 19 -2 37 -7 40
-12 3 -5 49 -12 101 -16 74 -5 120 -2 200 12 81 15 97 20 74 25 -45 10 -155 8
-200 -3z m90 -8 c-16 -4 -48 -7 -70 -7 l-40 0 45 7 c25 4 56 7 70 7 22 1 21 0
-5 -7z"/>
<path d="M5148 6263 c6 -2 18 -2 25 0 6 3 1 5 -13 5 -14 0 -19 -2 -12 -5z"/>
<path d="M6395 6240 c4 -7 3 -15 -3 -19 -5 -3 22 -6 62 -7 39 0 65 1 58 4 -6
2 -10 8 -6 13 3 5 -8 9 -24 9 -16 0 -44 3 -62 7 -25 5 -31 3 -25 -7z"/>
<path d="M4796 6228 c3 -4 -5 -8 -18 -9 -23 0 -23 0 -1 -9 11 -5 43 -5 70 -1
l48 7 -52 10 c-29 6 -50 7 -47 2z"/>
<path d="M5840 6230 c0 -5 5 -10 10 -10 6 0 10 5 10 10 0 6 -4 10 -10 10 -5 0
-10 -4 -10 -10z"/>
<path d="M5927 6228 c-6 -4 -8 -10 -4 -14 11 -11 80 -12 94 -1 12 9 199 4 308
-8 32 -3 35 -3 15 4 -20 7 -21 9 -5 10 15 1 16 4 7 13 -10 10 -15 10 -21 -1
-7 -10 -26 -11 -87 -5 -103 10 -292 11 -307 2z"/>
<path d="M6600 6230 c0 -5 10 -10 23 -11 l22 0 -22 -9 c-27 -11 -30 -19 -5
-15 9 1 22 -2 29 -7 7 -6 19 -6 31 1 11 6 21 8 24 6 3 -3 5 2 5 10 0 12 -8 15
-31 11 -17 -3 -25 -3 -18 0 6 3 10 10 6 15 -7 12 -64 12 -64 -1z"/>
<path d="M4680 6220 c-13 -8 -12 -10 3 -10 9 0 17 5 17 10 0 12 -1 12 -20 0z"/>
<path d="M6553 6214 c-8 -4 -7 -11 5 -23 17 -18 32 -18 32 0 0 5 -6 8 -12 7
-7 -2 -12 3 -10 10 1 6 1 12 0 11 -2 0 -8 -3 -15 -5z"/>
<path d="M4718 6198 c5 -5 16 -8 23 -6 8 3 3 7 -10 11 -17 4 -21 3 -13 -5z"/>
<path d="M4928 6203 c7 -3 16 -2 19 1 4 3 -2 6 -13 5 -11 0 -14 -3 -6 -6z"/>
<path d="M6720 6187 c0 -11 1 -18 3 -16 1 2 8 11 15 20 9 13 9 16 -3 16 -8 0
-15 -9 -15 -20z"/>
<path d="M4570 6190 c-11 -7 -4 -10 24 -10 22 0 36 3 32 7 -11 11 -40 13 -56
3z"/>
<path d="M4668 6193 c6 -2 18 -2 25 0 6 3 1 5 -13 5 -14 0 -19 -2 -12 -5z"/>
<path d="M5920 6189 c0 -5 14 -9 30 -9 17 0 30 3 30 8 0 4 -13 8 -30 8 -16 1
-30 -2 -30 -7z"/>
<path d="M6405 6190 c-4 -6 7 -10 24 -10 17 0 31 5 31 10 0 6 -11 10 -24 10
-14 0 -28 -4 -31 -10z"/>
<path d="M4930 6181 c0 -9 34 -21 60 -21 8 0 2 7 -14 15 -32 17 -46 19 -46 6z"/>
<path d="M4835 6160 c3 -5 18 -10 32 -10 32 0 22 13 -13 18 -16 2 -23 -1 -19
-8z"/>
<path d="M5088 6163 c7 -3 16 -2 19 1 4 3 -2 6 -13 5 -11 0 -14 -3 -6 -6z"/>
<path d="M4687 6149 c8 -8 16 -8 30 0 16 9 14 10 -11 11 -22 0 -27 -3 -19 -11z"/>
<path d="M5605 6150 c-4 -6 7 -10 24 -10 17 0 31 -4 31 -10 0 -5 11 -10 25
-10 14 0 25 5 25 10 0 6 9 10 20 10 11 0 20 5 20 10 0 14 -36 12 -61 -2 -17
-10 -23 -10 -26 0 -6 14 -49 16 -58 2z"/>
<path d="M6460 6150 c0 -5 14 -10 31 -10 17 0 28 4 24 10 -3 6 -17 10 -31 10
-13 0 -24 -4 -24 -10z"/>
<path d="M6753 6153 c-21 -8 8 -30 34 -25 18 3 22 1 17 -12 -8 -20 3 -21 22
-2 12 13 11 17 -8 30 -22 16 -42 19 -65 9z"/>
<path d="M4945 6140 c-3 -5 -1 -10 4 -10 6 0 11 5 11 10 0 6 -2 10 -4 10 -3 0
-8 -4 -11 -10z"/>
<path d="M4560 6130 c-34 -7 -34 -7 -5 -8 17 0 39 3 50 8 24 10 4 10 -45 0z"/>
<path d="M4654 6128 c23 -13 146 -22 146 -10 0 6 8 12 18 14 9 3 -26 4 -80 4
-53 -1 -91 -4 -84 -8z"/>
<path d="M5140 6130 c0 -5 7 -10 16 -10 8 0 12 5 9 10 -3 6 -10 10 -16 10 -5
0 -9 -4 -9 -10z"/>
<path d="M5188 6133 c7 -3 16 -2 19 1 4 3 -2 6 -13 5 -11 0 -14 -3 -6 -6z"/>
<path d="M5230 6130 c0 -5 7 -10 15 -10 8 0 15 5 15 10 0 6 -7 10 -15 10 -8 0
-15 -4 -15 -10z"/>
<path d="M5500 6136 c0 -9 30 -14 35 -6 4 6 -3 10 -14 10 -12 0 -21 -2 -21 -4z"/>
<path d="M6340 6130 c0 -5 11 -10 25 -10 14 0 25 5 25 10 0 6 -11 10 -25 10
-14 0 -25 -4 -25 -10z"/>
<path d="M6670 6130 c0 -5 9 -10 19 -10 11 0 23 5 26 10 4 6 -5 10 -19 10 -14
0 -26 -4 -26 -10z"/>
<path d="M4840 6120 c0 -5 -6 -8 -12 -6 -7 1 -10 1 -5 -1 4 -3 4 -10 0 -16 -3
-7 2 -5 13 5 10 9 30 18 44 21 21 4 20 4 -7 6 -18 0 -33 -3 -33 -9z"/>
<path d="M6560 6116 c0 -9 5 -16 10 -16 6 0 10 4 10 9 0 6 -4 13 -10 16 -5 3
-10 -1 -10 -9z"/>
<path d="M5005 6109 c-4 -6 -4 -13 -1 -16 3 -4 6 -1 6 5 0 6 8 13 18 15 15 4
15 5 0 6 -9 0 -20 -4 -23 -10z"/>
<path d="M4559 6096 c15 -8 20 -16 12 -20 -19 -12 -12 -26 12 -26 16 0 18 -3
9 -9 -8 -5 10 -7 45 -4 32 2 60 8 61 13 2 6 10 10 18 10 8 0 14 5 14 11 0 5 6
7 13 3 6 -4 9 -4 5 1 -4 4 -39 9 -78 11 -38 2 -79 8 -89 14 -11 5 -26 10 -33
10 -7 -1 -2 -7 11 -14z"/>
<path d="M5040 6090 c0 -6 18 -10 40 -8 22 1 40 5 40 8 0 4 -18 7 -40 8 -22 1
-40 -3 -40 -8z"/>
<path d="M6760 6089 c0 -5 5 -7 10 -4 6 3 10 8 10 11 0 2 -4 4 -10 4 -5 0 -10
-5 -10 -11z"/>
<path d="M4298 6083 c6 -2 18 -2 25 0 6 3 1 5 -13 5 -14 0 -19 -2 -12 -5z"/>
<path d="M5215 6079 c134 -11 215 -10 215 1 0 6 -56 9 -152 8 -146 -1 -149 -1
-63 -9z"/>
<path d="M4313 6072 c-35 -2 -63 -7 -63 -12 0 -5 -8 -7 -17 -4 -12 4 -8 -4 10
-20 28 -26 52 -33 61 -18 6 11 66 3 66 -8 0 -16 -42 -23 -52 -9 -7 11 -11 11
-15 2 -7 -20 -34 -15 -55 9 -10 12 -25 23 -32 24 -8 1 -24 5 -36 9 -17 5 -21
4 -17 -6 2 -8 10 -13 16 -11 6 1 16 -9 21 -23 9 -25 34 -32 98 -26 12 1 22 -2
22 -7 0 -5 14 -9 30 -9 17 0 30 4 30 9 0 17 28 39 35 28 4 -6 15 -8 26 -5 12
4 19 2 19 -6 0 -8 7 -5 20 6 14 13 20 14 20 5 0 -7 3 -10 6 -7 4 4 1 13 -5 21
-10 12 -9 14 8 9 12 -3 21 -1 21 5 0 7 -26 10 -72 9 -62 -2 -73 0 -73 15 0 23
-2 23 -72 20z m17 -19 c0 -5 -15 -9 -33 -10 -26 -1 -28 0 -12 7 26 11 45 12
45 3z"/>
<path d="M5444 6072 c3 -5 28 -9 56 -11 34 -1 50 1 45 8 -3 6 -29 11 -56 11
-28 0 -48 -4 -45 -8z"/>
<path d="M4435 6060 c-4 -6 5 -10 20 -10 15 0 24 4 20 10 -3 6 -12 10 -20 10
-8 0 -17 -4 -20 -10z"/>
<path d="M4931 6053 c9 -10 7 -13 -11 -13 -24 0 -91 -28 -101 -42 -3 -5 -18
-7 -32 -4 -17 3 -30 -1 -35 -10 -7 -12 -17 -13 -50 -6 -34 8 -46 7 -65 -7 -12
-10 -31 -21 -42 -26 -18 -8 -17 -9 9 -13 17 -2 32 2 37 10 7 10 9 10 9 1 0 -7
12 -13 26 -13 14 0 23 -4 20 -8 -2 -4 4 -8 14 -8 14 0 16 4 9 12 -8 9 -5 11
10 7 15 -4 21 -1 21 10 0 21 39 33 54 17 6 -7 6 -10 1 -7 -6 3 -19 -2 -30 -10
-19 -14 -18 -14 15 -8 19 4 37 11 40 15 6 8 74 22 108 22 29 0 23 22 -7 26
-13 2 -21 -1 -17 -6 3 -5 -4 -10 -17 -10 -12 -1 -37 -4 -56 -8 -24 -5 -32 -3
-27 5 4 6 17 11 28 11 11 0 27 8 34 18 7 9 14 12 14 5 0 -8 9 -9 32 -3 23 7
40 5 65 -6 30 -15 37 -15 82 0 61 20 72 20 47 1 -11 -8 -32 -15 -48 -15 -15 0
-28 -4 -28 -10 0 -13 57 -13 65 0 4 7 12 7 25 0 22 -12 65 -13 100 -2 21 6 17
8 -25 13 l-50 6 55 1 c31 1 79 -4 107 -11 29 -8 50 -11 48 -7 -2 4 50 13 116
20 89 10 132 10 167 2 26 -6 76 -8 112 -6 60 5 64 4 46 -10 -18 -15 -18 -16
-2 -16 10 0 14 -5 11 -11 -5 -7 23 -9 89 -7 53 2 96 0 96 -4 0 -5 -54 -8 -120
-8 -92 0 -120 -3 -120 -13 0 -14 73 -17 86 -4 11 11 62 8 69 -3 3 -5 21 -10
40 -10 19 0 37 5 40 10 3 6 34 10 68 11 44 0 56 3 42 9 -15 6 -5 9 34 9 80 1
58 10 -32 12 -43 1 -80 6 -83 10 -3 5 9 9 25 9 24 0 31 4 31 20 0 18 -7 20
-81 20 -61 0 -78 3 -73 13 6 9 5 9 -8 -1 -9 -7 -53 -14 -104 -16 -49 -2 -99
-7 -111 -11 -14 -4 -23 -3 -23 3 0 6 6 12 13 15 6 2 -1 2 -16 0 -15 -3 -34 1
-42 7 -12 10 -18 10 -30 0 -10 -9 -35 -11 -78 -7 -40 3 -51 3 -32 -3 22 -5 8
-8 -50 -7 -63 0 -72 1 -40 7 22 4 -61 6 -185 4 -170 -3 -231 0 -250 10 -14 7
-24 17 -23 23 1 5 -5 10 -12 10 -11 0 -12 -4 -4 -14z m412 -40 c-13 -2 -33 -2
-45 0 -13 2 -3 4 22 4 25 0 35 -2 23 -4z m725 -70 c-10 -2 -26 -2 -35 0 -10 3
-2 5 17 5 19 0 27 -2 18 -5z"/>
<path d="M5115 6060 c-3 -5 -2 -10 4 -10 5 0 13 5 16 10 3 6 2 10 -4 10 -5 0
-13 -4 -16 -10z"/>
<path d="M5068 6053 c6 -2 18 -2 25 0 6 3 1 5 -13 5 -14 0 -19 -2 -12 -5z"/>
<path d="M5450 6050 c-12 -8 -10 -10 8 -10 13 0 20 4 17 10 -7 12 -6 12 -25 0z"/>
<path d="M3920 6040 c-9 -6 -10 -10 -3 -10 6 0 15 5 18 10 8 12 4 12 -15 0z"/>
<path d="M4133 6035 c0 -8 4 -12 9 -9 4 3 8 9 8 15 0 5 -4 9 -8 9 -5 0 -9 -7
-9 -15z"/>
<path d="M4720 6040 c0 -13 11 -13 30 0 12 8 11 10 -7 10 -13 0 -23 -4 -23
-10z"/>
<path d="M4828 6033 c7 -3 16 -2 19 1 4 3 -2 6 -13 5 -11 0 -14 -3 -6 -6z"/>
<path d="M5803 6033 c9 -2 23 -2 30 0 6 3 -1 5 -18 5 -16 0 -22 -2 -12 -5z"/>
<path d="M6240 6000 c0 -22 5 -40 10 -40 6 0 10 18 10 40 0 22 -4 40 -10 40
-5 0 -10 -18 -10 -40z"/>
<path d="M4056 6009 c2 -4 -9 -10 -26 -13 -16 -3 -43 -9 -60 -12 -16 -3 -30
-9 -30 -12 0 -4 -9 -13 -21 -20 -16 -10 -24 -10 -35 -1 -10 8 -14 8 -14 0 0
-6 -6 -11 -14 -11 -8 0 -22 -7 -30 -16 -15 -14 -16 -13 -16 7 0 18 -2 20 -15
9 -9 -7 -14 -19 -11 -27 3 -7 -1 -13 -10 -13 -8 0 -13 -4 -10 -9 4 -5 2 -11
-3 -13 -14 -5 -43 -78 -31 -78 5 0 13 -19 17 -42 3 -24 8 -37 11 -30 6 20 53
14 73 -10 11 -11 19 -16 19 -10 0 6 -4 13 -8 16 -5 3 -7 19 -4 35 4 26 1 31
-24 37 -16 4 -36 13 -45 21 -14 12 -18 12 -23 1 -3 -7 -4 -4 -3 7 2 11 9 19
15 18 7 -2 12 2 12 8 0 6 8 9 19 6 12 -3 18 1 17 12 -1 12 8 16 32 16 34 0 43
12 15 22 -15 6 -14 7 3 13 25 10 34 4 34 -22 0 -16 4 -18 18 -12 9 4 32 7 50
7 17 -1 32 3 32 8 0 5 -5 9 -11 9 -6 0 -17 7 -26 15 -14 14 -13 18 7 35 25 21
70 27 70 9 0 -6 -8 -8 -17 -5 -10 3 -27 -1 -38 -10 -19 -14 -19 -14 2 -29 11
-8 24 -26 27 -40 8 -32 56 -37 56 -5 0 15 -7 20 -25 20 -23 0 -54 35 -41 48 3
3 6 0 6 -6 0 -19 26 -3 38 23 10 21 16 23 54 18 24 -3 47 -9 53 -14 12 -12 45
-11 45 0 0 6 -5 13 -12 17 -7 4 -8 3 -4 -4 4 -7 2 -12 -3 -12 -6 0 -11 6 -11
13 0 8 -22 17 -54 23 -30 5 -53 6 -50 3z m-126 -89 c0 -5 -7 -10 -16 -10 -8 0
-12 5 -9 10 3 6 10 10 16 10 5 0 9 -4 9 -10z"/>
<path d="M4728 6003 c7 -3 16 -2 19 1 4 3 -2 6 -13 5 -11 0 -14 -3 -6 -6z"/>
<path d="M3817 5983 c-10 -10 -8 -23 4 -23 5 0 8 4 5 9 -4 5 0 12 6 14 7 3 8
6 2 6 -6 1 -14 -2 -17 -6z"/>
<path d="M5485 5980 c-33 -6 -27 -7 38 -9 45 0 77 3 77 9 0 11 -53 11 -115 0z"/>
<path d="M4397 5953 c5 -16 7 -44 7 -63 -1 -27 2 -36 15 -37 9 -1 25 -3 36 -6
11 -2 14 -2 8 0 -7 3 -13 8 -13 13 0 5 -8 11 -17 13 -17 4 -17 5 0 6 25 2 21
38 -8 65 -13 13 -22 26 -18 29 3 4 1 7 -6 7 -8 0 -9 -9 -4 -27z"/>
<path d="M5710 5970 l-45 -7 48 -1 c26 -1 47 3 47 8 0 6 -1 9 -2 8 -2 0 -23
-4 -48 -8z"/>
<path d="M4208 5958 c6 -6 18 -8 28 -6 14 3 12 5 -9 10 -19 3 -25 2 -19 -4z"/>
<path d="M4970 5960 c-10 -7 5 -10 49 -10 35 0 62 2 59 5 -10 10 -93 14 -108
5z"/>
<path d="M4560 5949 c0 -5 5 -7 10 -4 6 3 10 8 10 11 0 2 -4 4 -10 4 -5 0 -10
-5 -10 -11z"/>
<path d="M4858 5943 c6 -2 18 -2 25 0 6 3 1 5 -13 5 -14 0 -19 -2 -12 -5z"/>
<path d="M4057 5924 c-8 -8 1 -24 14 -24 5 0 9 7 9 15 0 15 -12 20 -23 9z"/>
<path d="M4500 5917 c0 -16 38 -40 50 -32 6 4 10 0 10 -7 0 -10 2 -10 9 1 14
22 -10 51 -41 51 -16 0 -28 -6 -28 -13z"/>
<path d="M5518 5923 c18 -2 45 -2 60 0 15 2 0 4 -33 4 -33 0 -45 -2 -27 -4z"/>
<path d="M5638 5918 c9 -9 15 -9 24 0 9 9 7 12 -12 12 -19 0 -21 -3 -12 -12z"/>
<path d="M4625 5910 c-3 -5 1 -10 10 -10 9 0 13 5 10 10 -3 6 -8 10 -10 10 -2
0 -7 -4 -10 -10z"/>
<path d="M6111 5916 c2 -2 33 -6 69 -9 39 -3 55 -2 40 3 -25 8 -117 13 -109 6z"/>
<path d="M5050 5890 c-18 -12 -2 -12 25 0 13 6 15 9 5 9 -8 0 -22 -4 -30 -9z"/>
<path d="M5130 5890 c-8 -5 -10 -10 -5 -10 6 0 17 5 25 10 8 5 11 10 5 10 -5
0 -17 -5 -25 -10z"/>
<path d="M3929 5880 c-7 -5 -5 -9 6 -14 24 -9 65 -7 65 3 0 11 -56 20 -71 11z"/>
<path d="M4963 5883 c9 -2 23 -2 30 0 6 3 -1 5 -18 5 -16 0 -22 -2 -12 -5z"/>
<path d="M4475 5870 c28 -12 57 -12 50 0 -3 6 -21 10 -38 9 -27 0 -29 -2 -12
-9z"/>
<path d="M4878 5873 c7 -3 16 -2 19 1 4 3 -2 6 -13 5 -11 0 -14 -3 -6 -6z"/>
<path d="M3814 5846 c-20 -22 8 -46 55 -46 48 0 53 13 11 30 -16 7 -30 16 -30
21 0 13 -23 10 -36 -5z"/>
<path d="M3920 5810 c0 -5 18 -10 40 -10 22 0 40 5 40 10 0 6 -18 10 -40 10
-22 0 -40 -4 -40 -10z"/>
<path d="M4319 5806 c-3 -29 -4 -34 -12 -42 -9 -9 -57 16 -57 31 0 6 -11 12
-26 13 -14 1 -23 -2 -19 -8 3 -6 13 -10 21 -10 8 0 14 -4 14 -10 0 -5 -7 -10
-15 -10 -8 0 -15 4 -15 9 0 21 -52 22 -87 1 -34 -20 -64 -26 -76 -14 -4 4 -24
8 -44 9 -86 4 -109 -19 -47 -48 23 -12 41 -14 52 -8 28 14 105 25 98 13 -3 -6
0 -13 6 -16 7 -3 2 -5 -12 -5 -60 2 -85 -1 -71 -10 7 -5 10 -14 7 -20 -9 -14
33 -15 54 -1 12 8 10 10 -9 10 -13 0 -21 3 -17 7 4 4 22 6 41 5 18 -2 36 1 40
7 3 6 1 11 -4 11 -6 0 -11 5 -11 10 0 6 11 10 24 10 13 0 26 6 29 14 4 10 17
11 63 4 65 -10 89 -5 80 17 -4 10 1 15 15 15 12 0 19 5 17 13 -7 18 -38 21
-39 3z"/>
<path d="M3875 5770 c-3 -5 3 -10 15 -10 12 0 18 5 15 10 -3 6 -10 10 -15 10
-5 0 -12 -4 -15 -10z"/>
<path d="M3691 5734 c0 -11 3 -14 6 -6 3 7 2 16 -1 19 -3 4 -6 -2 -5 -13z"/>
<path d="M3710 5735 c0 -8 7 -15 15 -15 8 0 15 7 15 15 0 8 -7 15 -15 15 -8 0
-15 -7 -15 -15z"/>
<path d="M4160 5719 c0 -5 5 -7 10 -4 6 3 10 8 10 11 0 2 -4 4 -10 4 -5 0 -10
-5 -10 -11z"/>
<path d="M3945 5710 c3 -5 8 -10 11 -10 2 0 4 5 4 10 0 6 -5 10 -11 10 -5 0
-7 -4 -4 -10z"/>
<path d="M3860 5690 c0 -5 7 -10 15 -10 8 0 15 5 15 10 0 6 -7 10 -15 10 -8 0
-15 -4 -15 -10z"/>
<path d="M3985 5690 c3 -5 8 -10 11 -10 2 0 4 5 4 10 0 6 -5 10 -11 10 -5 0
-7 -4 -4 -10z"/>
<path d="M3991 5661 c-10 -6 -9 -10 3 -14 8 -3 18 -2 21 3 8 13 -9 20 -24 11z"/>
<path d="M3760 5622 c0 -10 5 -10 23 -1 33 17 33 19 4 17 -15 -1 -27 -8 -27
-16z"/>
<path d="M3835 5620 c-3 -5 1 -10 10 -10 9 0 13 5 10 10 -3 6 -8 10 -10 10 -2
0 -7 -4 -10 -10z"/>
<path d="M3865 5600 c-3 -5 3 -10 15 -10 12 0 18 5 15 10 -3 6 -10 10 -15 10
-5 0 -12 -4 -15 -10z"/>
<path d="M3765 5570 c-3 -5 -1 -10 4 -10 6 0 11 5 11 10 0 6 -2 10 -4 10 -3 0
-8 -4 -11 -10z"/>
<path d="M3440 5277 c0 -8 -5 -17 -12 -19 -7 -3 -8 -10 -2 -20 8 -14 11 -13
26 7 15 20 16 25 3 35 -12 10 -15 9 -15 -3z"/>
<path d="M6030 5402 c0 -4 15 -22 33 -40 37 -36 91 -57 196 -78 102 -20 152
-44 193 -95 50 -61 63 -117 49 -219 -6 -44 -19 -96 -29 -116 l-18 -35 -112 -2
c-101 -2 -112 0 -112 16 0 28 -67 159 -100 195 -26 28 -58 45 -48 25 40 -78
64 -138 78 -195 l18 -69 -53 -34 c-55 -35 -109 -102 -121 -149 -3 -15 -13 -30
-21 -33 -23 -9 -160 65 -188 101 -14 18 -43 69 -64 113 -40 81 -95 146 -131
156 -27 7 -25 -5 4 -32 14 -13 35 -49 47 -80 73 -183 121 -239 254 -297 l67
-29 -4 -90 c-3 -82 -7 -95 -35 -136 -18 -25 -48 -60 -68 -78 -21 -18 -34 -35
-31 -38 10 -10 69 22 110 58 59 52 78 99 86 219 11 161 53 235 166 287 51 24
71 28 149 28 78 0 97 -4 146 -28 130 -63 245 -233 287 -424 9 -41 9 -43 -24
-65 -31 -21 -50 -46 -41 -54 2 -2 39 5 82 16 43 11 102 20 132 20 95 0 53 43
-52 52 -25 3 -30 8 -37 43 -22 105 -73 222 -138 312 -39 54 -153 153 -177 153
-17 0 -16 11 2 37 24 35 58 192 51 241 -9 65 -39 126 -91 181 -55 59 -110 83
-247 106 -51 9 -116 27 -144 40 -55 27 -64 29 -64 17z"/>
<path d="M7850 4618 c-66 -106 -197 -228 -244 -228 -8 0 -17 -4 -20 -9 -5 -8
-56 -22 -56 -15 0 1 7 30 16 64 15 60 14 90 -5 90 -5 0 -11 -10 -14 -22 -13
-54 -41 -116 -83 -180 -37 -57 -53 -73 -97 -93 -60 -28 -109 -31 -161 -10 -38
16 -69 57 -107 143 -13 28 -27 52 -31 52 -31 0 -6 -138 35 -198 24 -33 25 -41
16 -81 -31 -137 -170 -196 -388 -165 -58 8 -127 14 -153 13 -40 -2 -50 1 -66
22 -40 53 -54 101 -62 213 -5 82 -14 131 -34 186 -38 104 -40 118 -25 136 16
20 55 13 127 -22 29 -14 56 -23 60 -19 12 12 -84 91 -127 103 -34 11 -45 10
-71 -3 -40 -21 -63 -58 -57 -92 2 -16 19 -66 36 -113 25 -70 31 -100 31 -171
0 -96 26 -198 61 -243 l21 -27 -38 -39 c-21 -21 -50 -62 -65 -91 -35 -66 -73
-106 -115 -119 -31 -11 -35 -9 -64 23 -42 48 -90 68 -163 69 -185 2 -272 -145
-177 -296 31 -49 95 -86 146 -86 34 0 30 12 -13 35 -71 37 -102 83 -110 161
-5 50 -3 57 22 84 56 59 178 63 240 9 35 -31 75 -105 75 -139 0 -11 4 -20 10
-20 12 0 23 40 18 71 -2 18 3 24 27 31 47 12 106 68 149 142 76 129 120 147
301 120 128 -19 235 -8 322 31 l52 23 39 -28 c44 -32 75 -72 97 -124 16 -38
35 -48 35 -18 0 36 -47 133 -83 174 l-37 42 19 40 c10 23 22 56 26 74 5 26 11
32 23 27 41 -17 93 -16 147 0 57 18 90 43 136 104 26 33 27 33 64 21 38 -12
125 -91 125 -113 0 -8 3 -8 11 0 15 15 -23 94 -60 126 l-28 23 56 27 c68 32
145 103 194 177 38 57 81 166 69 174 -4 2 -28 -28 -52 -66z"/>
<path d="M5094 4256 c-43 -45 -93 -66 -158 -66 -31 0 -56 -4 -56 -9 0 -12 75
-41 108 -41 22 0 30 -7 43 -39 23 -55 96 -89 231 -106 256 -34 348 -99 348
-247 0 -73 -21 -117 -72 -148 -48 -29 -55 -25 -63 30 -4 28 -15 60 -25 73 -19
22 -19 22 -13 -33 3 -31 0 -68 -6 -84 -11 -28 -13 -29 -67 -23 -128 13 -193
110 -96 143 42 13 24 34 -30 34 -82 0 -105 -85 -43 -157 65 -76 188 -99 309
-59 110 37 165 109 166 217 0 109 -48 193 -142 244 -53 28 -128 47 -269 68
-110 17 -161 38 -178 73 -10 22 -7 30 19 63 34 42 56 101 37 100 -7 0 -26 -15
-43 -33z"/>
<path d="M9093 5156 c0 -7 6 -13 14 -13 7 0 13 4 13 8 0 4 -6 9 -13 12 -8 3
-14 0 -14 -7z"/>
<path d="M9480 4701 c0 -5 -3 -16 -6 -25 -4 -10 -1 -16 7 -16 7 0 9 3 6 6 -3
4 -2 15 4 25 6 13 6 19 -1 19 -5 0 -10 -4 -10 -9z"/>
<path d="M4610 2174 c0 -8 5 -12 10 -9 6 4 8 11 5 16 -9 14 -15 11 -15 -7z"/>
<path d="M4685 2029 c-4 -6 -5 -12 -2 -15 2 -3 7 2 10 11 7 17 1 20 -8 4z"/>
<path d="M6951 2168 c0 -13 3 -17 6 -10 2 6 18 12 34 12 16 0 29 5 29 10 0 6
-16 10 -35 10 -30 0 -35 -3 -34 -22z"/>
<path d="M6916 2158 c3 -13 11 -25 15 -26 5 -2 7 -8 3 -13 -3 -5 0 -9 5 -9 6
0 11 -7 11 -15 0 -9 -6 -12 -17 -8 -12 5 -15 2 -10 -10 3 -8 1 -18 -6 -21 -7
-4 -1 -4 13 0 14 3 34 7 45 8 11 2 24 4 28 5 5 0 5 6 2 11 -4 6 -15 8 -26 5
-25 -8 -26 20 -1 35 11 7 12 10 2 7 -23 -7 -50 11 -50 33 0 11 -5 20 -11 20
-6 0 -8 -9 -3 -22z"/>
<path d="M6985 2150 c4 -6 11 -8 16 -5 14 9 11 15 -7 15 -8 0 -12 -5 -9 -10z"/>
<path d="M7023 2138 c2 -22 13 -24 21 -2 8 21 8 21 -8 21 -8 0 -14 -9 -13 -19z"/>
<path d="M7059 2123 c-1 -5 0 -21 1 -38 2 -38 17 -55 30 -35 15 24 12 34 -6
19 -15 -12 -16 -10 -12 24 2 20 0 37 -4 37 -4 0 -8 -3 -9 -7z"/>
<path d="M7000 2106 c0 -2 11 -6 25 -8 13 -3 22 -1 19 3 -5 9 -44 13 -44 5z"/>
<path d="M7034 2073 c3 -6 2 -14 -4 -18 -13 -8 -13 -25 0 -25 17 0 24 30 10
43 -10 9 -11 9 -6 0z"/>
<path d="M6945 2030 c3 -5 8 -10 11 -10 2 0 4 5 4 10 0 6 -5 10 -11 10 -5 0
-7 -4 -4 -10z"/>
<path d="M7036 2021 c-3 -5 1 -11 9 -15 15 -6 29 7 18 18 -9 9 -21 8 -27 -3z"/>
<path d="M6990 2006 c0 -2 7 -7 16 -10 8 -3 12 -2 9 4 -6 10 -25 14 -25 6z"/>
</g>
</svg>
