<svg width="400" height="100" viewBox="0 0 400 100" fill="none" xmlns="http://www.w3.org/2000/svg">
<rect width="400" height="100" fill="#EFDEF5"/>
<rect width="100" height="100" fill="#79AFC7"/>
<path d="M24.4886 66.5142V43.0767H28.4659V66.5142H24.4886ZM14.7585 56.7841V52.8068H38.196V56.7841H14.7585ZM76.4817 51.4574V55.3636H60.5726V51.4574H76.4817Z" fill="black"/>
<rect width="100" height="100" transform="translate(300)" fill="#79AFC7"/>
<path d="M337.69 30.9318L325.972 74.4688H322.136L333.855 30.9318H337.69ZM363.68 53.0909L363.964 45.2784L357.359 49.4688L355.655 46.4858L362.615 42.8636L355.655 39.2415L357.359 36.2585L363.964 40.4489L363.68 32.6364H367.089L366.805 40.4489L373.41 36.2585L375.115 39.2415L368.155 42.8636L375.115 46.4858L373.41 49.4688L366.805 45.2784L367.089 53.0909H363.68Z" fill="black"/>
</svg>
